<svg xmlns="http://www.w3.org/2000/svg" enable-background="new 0 0 135 135" viewBox="0 0 135 135"><path fill="#fad014" d="M6.62648 11.57761H4.01125c-.55273 0-1-.44775-1-1s.44727-1 1-1h2.61523c.55273 0 1 .44775 1 1S7.17922 11.57761 6.62648 11.57761zM6.08449 16.58249c-.25586 0-.51172-.09766-.70703-.29297-.39063-.39014-.39063-1.02344 0-1.41406l1.84863-1.84912c.39063-.39063 1.02344-.39063 1.41406 0 .39063.39014.39063 1.02344 0 1.41406l-1.84863 1.84912C6.59621 16.48483 6.34033 16.58249 6.08449 16.58249zM7.93312 8.42185c-.25586 0-.51172-.09766-.70703-.29297L5.37746 6.28025c-.39063-.39063-.39063-1.02344 0-1.41406s1.02344-.39063 1.41406 0l1.84863 1.84863c.39063.39063.39063 1.02344 0 1.41406C8.44484 8.32419 8.18898 8.42185 7.93312 8.42185z"/><path fill="#ed7149" d="M123.15773 7.49314c-.55273 0-1-.44775-1-1V4.09958c0-.55225.44727-1 1-1s1 .44775 1 1v2.39355C124.15773 7.04538 123.71046 7.49314 123.15773 7.49314zM123.15773 18.05564c-.55273 0-1-.44775-1-1v-2.39355c0-.55225.44727-1 1-1s1 .44775 1 1v2.39355C124.15773 17.60788 123.71046 18.05564 123.15773 18.05564zM129.63527 11.57761h-2.39355c-.55273 0-1-.44775-1-1s.44727-1 1-1h2.39355c.55273 0 1 .44775 1 1S130.188 11.57761 129.63527 11.57761zM126.04543 8.68942c-.25586 0-.51172-.09766-.70703-.29297-.39063-.39063-.39063-1.02344 0-1.41406l1.69238-1.69238c.39063-.39063 1.02344-.39063 1.41406 0s.39063 1.02344 0 1.41406l-1.69238 1.69238C126.55714 8.59177 126.30128 8.68942 126.04543 8.68942zM127.73781 16.15817c-.25586 0-.51172-.09766-.70703-.29297l-1.69238-1.69238c-.39063-.39063-.39063-1.02344 0-1.41406s1.02344-.39063 1.41406 0l1.69238 1.69238c.39063.39063.39063 1.02344 0 1.41406C128.24953 16.06052 127.99367 16.15817 127.73781 16.15817z"/><path fill="#5b58cf" d="M130.98836,117.16226v2.15548c0,6.72816-5.45407,12.18224-12.18224,12.18224H23.39036
					c-6.72817,0-12.18224-5.45408-12.18224-12.18224v-2.15548H130.98836z"/><path fill="#5b58cf" d="M118.43812,37.84552h-9.90927v79.31679h18.6636V46.60037
					C127.19244,41.76526,123.27304,37.84552,118.43812,37.84552z"/><path fill="#a3baf2" d="M124.01772,117.16226v2.15548c0,6.72816-5.45408,12.18224-12.18224,12.18224H16.41971
					c-6.72817,0-12.18224-5.45408-12.18224-12.18224v-2.15548H124.01772z"/><path fill="#fff" d="M79.61453,117.16226l-1.32151,3.47755c-0.64623,1.70058-2.27617,2.82484-4.09539,2.82484H54.05755
					c-1.81922,0-3.44916-1.12426-4.09539-2.82484l-1.32151-3.47755H79.61453z"/><path fill="#e2f2ff" d="M120.22179,46.60014v70.56213H8.03338V46.60014c0-4.83487,3.91944-8.75431,8.75431-8.75431h94.67979
					C116.30235,37.84582,120.22179,41.76526,120.22179,46.60014z"/><path fill="#e2f2ff" d="M120.22179,46.60014v70.56213H8.03338V46.60014c0-4.83487,3.91944-8.75431,8.75431-8.75431h94.67979
					C116.30235,37.84582,120.22179,41.76526,120.22179,46.60014z"/><path fill="#fff" d="M112.352,46.6044v62.68689H15.90737V46.6044c0-0.4879,0.39645-0.88446,0.87417-0.88446h94.68612
						C111.95555,45.71993,112.352,46.1165,112.352,46.6044z"/><polygon fill="#e2f2ff" points="77.801 45.72 54.422 109.291 21.295 109.291 44.674 45.72"/><polygon fill="#e2f2ff" points="104.779 45.72 81.4 109.291 67.474 109.291 90.853 45.72"/><path fill="#fad014" d="M11.08937 7.11472c-.55273 0-1-.44775-1-1V3.49997c0-.55225.44727-1 1-1s1 .44775 1 1v2.61475C12.08937 6.66696 11.64211 7.11472 11.08937 7.11472zM11.08937 18.65524c-.55273 0-1-.44775-1-1V15.0405c0-.55225.44727-1 1-1s1 .44775 1 1v2.61475C12.08937 18.20749 11.64211 18.65524 11.08937 18.65524zM18.16652 11.57761h-2.61426c-.55273 0-1-.44775-1-1s.44727-1 1-1h2.61426c.55273 0 1 .44775 1 1S18.71926 11.57761 18.16652 11.57761zM14.24465 8.42185c-.25586 0-.51172-.09766-.70703-.29297-.39063-.39062-.39063-1.02393 0-1.41455l1.84961-1.84863c.39063-.38965 1.02344-.39014 1.41406.00049s.39063 1.02393 0 1.41455l-1.84961 1.84863C14.75637 8.32419 14.50051 8.42185 14.24465 8.42185zM16.09426 16.58249c-.25586 0-.51172-.09766-.70703-.29297l-1.84961-1.84912c-.39063-.39014-.39063-1.02344 0-1.41406s1.02344-.39063 1.41406 0l1.84961 1.84912c.39063.39014.39063 1.02344 0 1.41406C16.60598 16.48483 16.35012 16.58249 16.09426 16.58249z"/><path fill="#ed7149" d="M119.07277 11.57761h-2.39355c-.55273 0-1-.44775-1-1s.44727-1 1-1h2.39355c.55273 0 1 .44775 1 1S119.6255 11.57761 119.07277 11.57761zM118.57668 16.15817c-.25586 0-.51172-.09766-.70703-.29297-.39063-.39063-.39063-1.02344 0-1.41406l1.69238-1.69238c.39063-.39063 1.02344-.39063 1.41406 0s.39063 1.02344 0 1.41406l-1.69238 1.69238C119.08839 16.06052 118.83253 16.15817 118.57668 16.15817zM120.26906 8.68942c-.25586 0-.51172-.09766-.70703-.29297l-1.69238-1.69238c-.39063-.39063-.39063-1.02344 0-1.41406s1.02344-.39063 1.41406 0l1.69238 1.69238c.39063.39063.39063 1.02344 0 1.41406C120.78078 8.59177 120.52492 8.68942 120.26906 8.68942z"/><path fill="#a2e55a" d="M100.9673,15.04001c-2.25,0-4.33398-1.46582-5.01563-3.73096
					c-0.8291-2.76221,0.74316-5.68359,3.50391-6.51318c2.77246-0.83252,5.68945,0.73975,6.52051,3.50049
					c0.83008,2.76563-0.74414,5.69141-3.50879,6.52197l0,0C101.96828,14.96872,101.46339,15.04001,100.9673,15.04001z
					 M100.96339,6.5737c-0.30859,0-0.62207,0.04395-0.93164,0.13721C98.3257,7.2236,97.355,9.0278,97.86769,10.73337
					c0.51367,1.70898,2.32227,2.67969,4.02344,2.16992l0,0c1.70996-0.51367,2.68262-2.32178,2.16895-4.03125
					C103.64015,7.47653,102.35304,6.5737,100.96339,6.5737z"/><polygon fill="#5b58cf" points="64.128 42.165 64.128 88.255 27.255 69.819 27.255 23.729"/><polygon fill="#e2f2ff" points="101 23.729 101 69.819 64.128 88.255 64.128 42.165"/><polygon fill="#a3baf2" points="101 23.729 64.128 42.168 27.255 23.729 64.128 5.296"/><path fill="#402da3" d="M130.98875,116.16214h-2.7959V46.60061c0-5.37891-4.37598-9.75488-9.75488-9.75488
						c-0.56326,0-6.40788,0-6.9707,0h-9.46777v-13.1167c0-0.37583-0.23933-0.74068-0.55273-0.89453L64.57469,4.40188
						c-0.28125-0.14063-0.61329-0.14063-0.89454,0L26.80809,22.8345c-0.29233,0.14351-0.55273,0.49598-0.55273,0.89453v13.1167
						h-9.46777c-5.37793,0-9.75391,4.37598-9.75391,9.75439v69.56201h-2.7959c-0.55273,0-1,0.44775-1,1v2.15576
						c0,7.26855,5.91309,13.18213,13.18164,13.18213H63.8867l0,0h54.91944c7.26855,0,13.18262-5.91357,13.18262-13.18213v-2.15576
						C131.98875,116.60989,131.54149,116.16214,130.98875,116.16214z M118.43797,38.84573c4.27637,0,7.75488,3.479,7.75488,7.75488
						v69.56152h-2.17444c-0.00012,0-0.00012,0-0.00037,0h-2.7959V46.60012c0-3.16309-1.52026-5.97095-3.86121-7.75439H118.43797z
						 M78.16551,118.16214l-0.80664,2.12207c-0.49609,1.3042-1.7666,2.18066-3.16113,2.18066H54.05711
						c-1.39551,0-2.66504-0.87598-3.16016-2.18018l-0.80664-2.12256C59.94126,118.16214,68.32796,118.16214,78.16551,118.16214z
						 M26.80809,70.71341l36.87207,18.43604c0.28831,0.14178,0.61457,0.13882,0.89454,0l36.87207-18.43604
						c0.33887-0.16943,0.55273-0.51563,0.55273-0.89453V46.72415h9.34863v61.56446H16.90672V46.72415h9.34863v23.09473
						C26.25535,70.19778,26.46922,70.54398,26.80809,70.71341z M28.25535,25.3472l34.87207,17.43945v43.8501L28.25535,69.20071
						V25.3472z M65.12743,42.78665L99.9995,25.3472v43.85352L65.12743,86.63675V42.78665z M64.12743,6.41458l34.63574,17.31445
						L64.12743,41.0469L29.49168,23.72903L64.12743,6.41458z M9.03367,46.60012c0-4.27588,3.47852-7.75439,7.75391-7.75439h9.46777
						v5.87842H15.90672c-0.55273,0-1,0.44775-1,1v63.56446c0,0.55225,0.44727,1,1,1h96.44141c0.55273,0,1-0.44775,1-1V45.72415
						c0-0.55225-0.44727-1-1-1H101.9995v-5.87842h9.46777c4.27637,0,7.75488,3.47852,7.75488,7.75439v69.56201
						c-23.31377,0-86.83366,0-110.18848,0V46.60012z M5.23777,119.3179v-1.15576c16.01265,0,33.88265,0,42.71387,0l1.07617,2.83252
						c0.78711,2.07568,2.80859,3.47021,5.0293,3.47021h20.14063c2.21973,0,4.24121-1.39453,5.03027-3.47021l1.07617-2.83252
						c8.76478,0,33.66119,0,42.71387,0v1.15576c0,6.16602-5.0166,11.18213-11.18262,11.18213H16.41941
						C10.2534,130.50003,5.23777,125.48392,5.23777,119.3179z M129.98875,119.3179c0,6.16602-5.0166,11.18213-11.18262,11.18213
						h-0.0238c3.73621-2.32959,6.23572-6.46436,6.23572-11.18213v-1.15576h2.1748h2.7959V119.3179z"/><path fill="#402da3" d="M87.88524 87.18655h17.53516c.55273 0 1-.44775 1-1s-.44727-1-1-1H87.88524c-.55273 0-1 .44775-1 1S87.3325 87.18655 87.88524 87.18655zM87.88524 95.44534h17.53516c.55273 0 1-.44775 1-1s-.44727-1-1-1H87.88524c-.55273 0-1 .44775-1 1S87.3325 95.44534 87.88524 95.44534zM21.83543 86.18655c0 .55225.44727 1 1 1h17.53418c.55273 0 1-.44775 1-1s-.44727-1-1-1H22.83543C22.2827 85.18655 21.83543 85.63431 21.83543 86.18655zM31.60203 93.44534h-8.7666c-.55273 0-1 .44775-1 1s.44727 1 1 1h8.7666c.55273 0 1-.44775 1-1S32.15477 93.44534 31.60203 93.44534z"/></svg>