<svg xmlns="http://www.w3.org/2000/svg" enable-background="new 0 0 2500 2500" viewBox="0 0 2500 2500"><ellipse cx="1216.8" cy="1262.9" fill="#ffddb1" rx="939.4" ry="940.9"/><path fill="#fff" d="M1811.2,1828.7l-13.4,24.5l-24.5,13.4l24.5,13.4l13.4,24.2l13-24.2l24.5-13.4l-24.5-13.4L1811.2,1828.7z
	 M1951.7,1678.5l-13.4,24.5l-24.5,13.4l24.5,13.4l13.4,24.2l13-24.2l24.5-13.4l-24.5-13.4L1951.7,1678.5z M1794.1,1552.8l-29.4,53.6
	l-53.9,29.8l53.9,29.4l29.4,53.6l29.4-53.6l53.9-29.4l-53.9-29.8L1794.1,1552.8z M592.4,1533.4L579,1558l-24.5,13.4l24.5,13.4
	l13.4,24.2l13-24.2l24.5-13.4l-24.5-13.4L592.4,1533.4z M1575.7,1331.1l-13.4,24.5l-24.5,13.4l24.5,13.4l13.4,24.2l13-24.2
	l24.5-13.4l-24.5-13.4L1575.7,1331.1z M1372.7,1290.6c15.4,1.1,29.4,11.2,34.6,26.8c3.5,10.4,2.3,21-2.2,30.1
	c-4.5,9.1-12.3,16.6-22.7,20.1c-20.7,7-43.2-4.2-50.2-24.9c-7-20.7,4.2-43.2,24.9-50.2C1362.2,1290.7,1367.5,1290.2,1372.7,1290.6z
	 M1360.8,1254.1l-0.4,16l-14.9,3.3l-6.7-12.3l-29.8,21.2l10.4,10.8l-7.4,14.1l-13.4-4.1l-4.8,35.3l14.9,0.7l4.5,13.4l-12.6,8.6
	l20.8,29.4l13-10l10.8,7.4l-3,13.4l36.1,6.3l2.2-16.7l10.4-3.3l9.7,12.6l29-21.2l-10-12.3l5.2-10.4l16.4,0.4l3.7-36.1l-17.1-1.5
	l-2.2-11.9l13-7.1l-23.1-29.8l-13.4,10.4l-9.3-7.1l4.5-14.5L1360.8,1254.1z M878.4,1228.5l-19,35l-35,19l35,19l19,34.6l19-34.6
	l34.6-19l-34.6-19L878.4,1228.5z M1541.5,1108.3c9.7,0.8,19.5,3.1,28.6,7.8c36.6,19,51,64.2,32,100.8c-19,36.6-64.2,51-100.8,32
	c-36.6-19-51-64.2-32-100.8C1483.6,1120.7,1512.5,1106.1,1541.5,1108.3z M1520,1041.8l-4.8,31.6l-21.2,2.6l-13-25.3l-56.5,40.9
	l20.5,21.9l-15.6,24.5l-24.9-8.6l-12.6,68.1l28.3,0.7l8.2,29l-23.8,11.5l40.5,54.3l20.8-18.6l23.4,12.6l-6,28.6l66.6,11.9l4.5-30.5
	l24.5-4.5l13.4,22.7l56.9-38.7l-18.6-25.7l9.7-18.2l30.1,4.8l10.8-66.9l-29.8-3.7l-6.3-20.5l22.7-21.2l-42.4-53.9l-24.5,20.5
	l-18.6-13l8.2-27.1L1520,1041.8z M1643.1,852.8l-29.4,53.9l-53.9,29.4l53.9,29.4l29.4,53.6l29.4-53.6l53.9-29.4l-53.9-29.4
	L1643.1,852.8z M1856.5,827.2l-17.5,32.4l-32.4,17.5l32.4,17.5l17.5,32.4l17.5-32.4l32.4-17.5l-32.4-17.5L1856.5,827.2z
	 M573.8,795.2l-17.5,32.4L524,845l32.4,17.5l17.5,32.4l17.5-32.4l32.4-17.5l-32.4-17.5L573.8,795.2z M1381.6,468.3
	c9.6,0.8,18.8,3.1,27.9,7.8c36.2,18.8,50.8,63.8,32,100c-18.8,36.2-63.8,50-100,31.2c-36.2-18.8-50-63.1-31.2-99.3
	C1324.3,480.9,1352.9,466,1381.6,468.3z M1360.4,402.4l-4.8,31.6l-21.2,2.2l-12.6-24.9l-56.2,40.5l20.5,21.6l-15.6,24.2l-24.9-8.6
	l-12.3,67.7l27.9,1.1l8.2,28.3l-23.4,11.5l39.4,53.9l20.8-19l23.4,12.6l-6,28.3l65.8,11.9l4.5-30.1l24.2-4.1l13,21.9l56.9-38.3
	l-18.6-25.3l9.7-17.9l29.4,4.5l11.2-66.2l-29.8-3.7l-6-20.5l22.3-20.5l-42-53.6l-24.5,20.1l-18.2-13l8.2-26.4L1360.4,402.4z"/><path fill="#fccc2d" d="M1131.6,168.7c0,0-147.1,187.1-376.4,267.8c-176,61.9-267.8,53.2-309.8,42.4c43.8,0.1,127-26.1,216.8-70.7
	C784.4,347.6,871.7,276.4,857.1,249c-14.6-27.4-125.5-0.7-247.7,59.9C487.2,369.5,399.9,441,414.5,468.4c0,0.1,6.7,9.9,6.7,9.9
	l601.6,915.4l235.5-69.5L1131.6,168.7z"/><path fill="#f99f2e" d="M857.5,250.3l37.5,120.3c0,0-54.2,35.7-121.2,64.2c-92.5,39.4-247.7,71.7-341.7,42.1c0,0,72.5-0.3,210.5-66.1
	C760.1,354.9,856.2,289.9,857.5,250.3z"/><path fill="#f99f2e" d="M1100.8,1326c0,0-273.3,38.6-315.1,117.7c-81,153.1-180.8,389.7-180.8,389.7l251,234.5l17.1,97.8l263.1,43.3
	c0,0,124.8-4.9,258-30.4c105.3-20.2,225.3-57.5,273.3-115.2c27.3-32.7,36.6-78.9,34.5-151c-4.2-147.8-6.7-340.1-154.5-438.4
	c-136.4-90.6-260.6-140.2-260.6-140.2l-126.9,52L1100.8,1326z"/><path fill="#ffdfb7" d="M1089.9,1441l21.6,47.9l-36.9,114.5l35.9,36.4l24.1,2.2l46-30.1l-10.5-114.7l34.1-42.7c0,0-6.6-57.1-49.8-62.5
	C1110.3,1386.6,1089.9,1441,1089.9,1441z"/><polygon fill="#d97d27" points="1481.3 1950.3 1478.7 1827.1 1450.7 1934 1372.2 1975.4 1380.3 1976.1"/><path fill="#fff" d="M1292.8,1326.7c0,0-16.5,18.6-43,31.9c-35,17.6-89.9,34.5-89.9,34.5l-62.2-69.4c0,0-25.2,1.8-30.6,26.2
	c-7.8,34.9,11.5,118.6,11.5,118.6s15.6-26.5,35.4-42.8c19.8-16.2,43.7-22.2,43.7-22.2s18.7,15.5,31,36.6
	c14.9,25.4,22.1,55.8,22.1,55.8s88.3-70.7,110.2-111.1C1342.8,1344.1,1292.8,1326.7,1292.8,1326.7z"/><path fill="#fdbf71" d="M1085.6,1327.2c-92.7,1.3-83,212.9-83,212.9l51.3,7.1l-42.8,20.5l104.1,110.8l151.7-75.5l-37.9-48.7l65.5,21.6
	c0,0,68.5-76.8,67.1-162.6c-0.5-33.5-11.5-63.4-58.2-81.4c0,0,35.6,39.3-7.8,84.1c-57.7,59.5-175.5,198-176.7,199.3
	c-0.6-1.9-35.3-118.2-48.3-214.6C1062.3,1338.8,1085.6,1327.2,1085.6,1327.2z"/><path fill="#fff" d="M1267.1,1698.7c-13-9.6-34.2-11.4-34.2-11.4l-688.6-66.2c0,0-28.4-3.1-41.2,7.3c-14,11.4-7.4,33.1-7.4,33.1
	l88.5,436.9c0,0,0.4,17.7,11.9,27.6c11.5,9.9,34.2,11.8,34.2,11.8l640.8,91.2c0,0,36.7,5.7,53.6,3.3c18.8-2.7,35-22,35-22l190-177.6
	c0,0,16.8-13.9,10.8-24c-6-10-33.5-12.8-33.5-12.8l-181.9-24.3l-35-4.9L1281,1734C1281,1734,1279.4,1707.7,1267.1,1698.7z"/><path fill="#aeaeae" d="M1314.7,2013.2l16.4,152.5l142.8-129.4L1314.7,2013.2z M861.3,1896l-32.4,43.5l36.4,4.5l17.1,1.9l1.9-15.2
	l7.1,16.4l9.7-14.5l-1.9,15.2l19.7,2.6l3.3-27.5l-52.4-6.3L861.3,1896z"/><path fill="#fbc5b8" d="M960.6,1999.8c-10.8,3-15.5,11.7-17.5,22.7c-9.2-16.1-19.8-27.1-33.5-20.1c-13.5,6.9-16.6,24.5-16.7,44.3
	c-5.6-9.1-12.3-14.8-20.8-13.4c-30.7,5-24.2,107.1-24.2,107.1c0,0,1.3,33.5,20.5,47.2c11.2,8,27.5,7.8,27.5,7.8
	c0,0,16.9,15.3,33.1,23.1c17.2,8.2,31.2,1.9,31.2,1.9c0,0,10,7.2,31.6,12.6c19.5,4.9,31.2-6.7,31.2-6.7s30.3,13.5,49.1,9.7
	c23.3-4.7,33.5-13,53.6-14.1c23.5-1.3,45-9.3,45-9.3s-20.6-8.9-36.8-13.8c-16.3-4.8-23.4-5.9-38.3-8.6c-20.8-3.8-30.1-34-35-49.8
	c-10-32.5-15.4-82.3-32.4-105.2c-9.5-12.8-21-15.3-28.3-13.4c-2.8,0.7-4,2.3-5.6,4.5C985.2,2008.8,974.2,1996.1,960.6,1999.8z
	 M1193.4,754.6c-193.1,4.3-169.6,217.2-169.6,217.2s-21.4-10.6-48.3-2.2c-15.2,4.7-35.4,21-17.1,75.1c20.9,62,55.4,58.8,55.4,58.8
	s40.5,85.1,84.1,119.8l0.4,113.8c0,0,29.8,33.3,59.9,66.2c63.9-26.3,69.7-24.3,103.4-42.4c33.7-18.1,31.6-30.1,31.6-30.1l6-102.3
	c44.7-43.3,68.8-105.3,68.8-105.2c0,0,56.9,11.7,90-63.2c21.2-47.9-5.5-65.2-23.8-67.7c-23.1-3.1-35.7,9.7-35.7,9.7
	c0,0,68.2-219.1-163.6-245.5C1219.8,754.8,1206.3,754.4,1193.4,754.6z"/><path fill="#2a1f1c" d="M1180.6,1231c-66.4-0.8-88.9-98.1-88.9-98.1s45.2,12.8,89.3,15c44,2.2,86.9-6.1,86.9-6.1
	S1247.1,1231.8,1180.6,1231z"/><path fill="#cb4c2c" d="M1181.1,1172c-20.4-1.3-48.6,3.5-67.5,13.6c13.7,22.9,35.6,45,66.9,45.3c30.2,0.4,50.8-17.9,64.5-38
	C1227,1181.2,1204,1173.5,1181.1,1172z"/><path fill="#2a1f1c" d="M1241.7,1020c-6-0.3-11.2,3.9-11.5,9.8c-0.3,5.9,4.4,10.9,10.4,11.2c6,0.3,11.2-4.2,11.5-10.1
	C1252.4,1025,1247.7,1020.3,1241.7,1020z M1109.4,1013.3c-6-0.3-11.2,4.2-11.5,10.1c-0.3,5.9,4.4,10.9,10.4,11.2
	c6,0.3,11.2-4.2,11.5-10.1C1120.1,1018.6,1115.4,1013.6,1109.4,1013.3z M1119.8,968.3c-12.8-1.6-31.3,0.9-53.9,16.8
	c0,0,40.7-16.5,73.7-9.8C1139.6,975.2,1132.6,969.8,1119.8,968.3z M1236.9,973.9c-12.9,0.2-20.7,4.9-20.7,4.9
	c33.4-3.2,72.6,17.3,72.6,17.3C1268,978,1249.8,973.7,1236.9,973.9z"/><path fill="#de7e67" d="M1051.7,2104.7c0,0,12.4,59.9,26,83.3c9.2,15.8,20.3,1.9,53.9,10c0,0-8.8-3.1-21.2-6
	c-12.3-2.8-24.9-1.7-31.2-13.4C1060.5,2144.2,1051.7,2104.7,1051.7,2104.7z M1099.7,1225.1c0,0,25.3,58,81.4,64.3
	c54,6.1,117.5-61,117.5-61c0,0-58.2,45.4-115.3,40.9C1136,1265.6,1099.7,1225.1,1099.7,1225.1z M1165.9,1039.9
	c0,0-61.5,64.5,14.1,81.1C1180,1121,1135.3,1101.5,1165.9,1039.9z M1428.8,1020.9c-9.9,0.3-21,10.6-25.3,22.3
	c-3.1,8.5,3.2,13.4-0.4,20.1c-3.1,5.7-15.3,7.9-17.9,16c-2.5,7.9-3.5,15.9,3.3,16c24.3,0.4,66.2-54.5,49.1-71
	C1435.1,1021.7,1432.1,1020.8,1428.8,1020.9z"/><path fill="#6e3734" d="M1228.5,611.2c-120.4-5.6-164.9,54.4-164.9,54.4c0,0-30.4-15.9-67.3,32.4C944.2,766,969.9,972,969.9,972
	c25.9-11.7,41.4,76.8,41.4,76.8c0,0,6-78.7,25-111.4c0.3-0.5,33.4-9.4,44.9-17.7c36.6-26.5,37.1-56,35.8-72.1
	c0.3,1.4,18.9,32.9,36,35.1c3.6-33,24.1,5.6,76.2,30.1c52.1,24.5,61.6,15.5,97.8,35.7c30.4,17,36.6,35.4,40.4,56.1
	c2.8,29.1-0.4,54.4-0.4,54.4c30.2-88.3,77.7-63.4,77.7-63.5c0,0,53.2-138.3-2.2-250.8C1420.6,700.2,1348.5,616.7,1228.5,611.2z"/><path fill="#f99f2e" d="M1229.2,545.9c-17.8,0.2-51.7,23.6-67,27.1c-259.7,58.8-204.7,326.8-204.7,326.8s-28.3,54.3,209.3,68.8
	c112.5,6.8,158.1-3.3,184-14.6c31.7-13.8,71.8-31.7,92.5-32.7c22.5-1.1,31-2.3,31-2.3s69.3-262.3-175.1-343.4
	C1281,569.5,1251.2,545.6,1229.2,545.9z"/><path fill="#d97d27" d="M966.9,902.7c180.6,73.2,416.2,26,416.2,26C1123.8,955.9,966.9,902.7,966.9,902.7z M1297.6,575.4L1241,920.9
	l89.6-332.9c0,0-7.7-3.9-16-7.1S1297.6,575.4,1297.6,575.4z M1165.9,572l-14.9,3.7l-13,3.3l-35.3,333.6L1165.9,572z"/><circle cx="2044.6" cy="1299" r="304" fill="#b83648" transform="rotate(-45.001 2044.55 1299.058)"/><path fill="#eb5567" d="M1706.4,1298.1c0-167.9,136.1-304,304-304c167.9,0,304,136.1,304,304c0,167.9-136.1,304-304,304
	c-98.4,0-186-46.8-241.5-119.3c-11.7-15.3-85.7,10.6-94.3-6.8c-6.1-12.3,52.2-67.3,47.8-80.5
	C1712,1364.9,1706.4,1332.1,1706.4,1298.1z"/><circle cx="1995.1" cy="1300.4" r="236.3" fill="#b83648" transform="rotate(-45.001 1995.046 1300.409)"/><path fill="#972534" d="M1889.9,1089.2c0,0-135.6,75.9-104.5,258.5c22.7,133.3,154.4,182.9,154.4,182.9s-154.5-36.5-176.8-195.3
	C1738.8,1161.7,1889.9,1089.2,1889.9,1089.2z"/><path fill="#f69eac" d="M2095.6,1541c-4.9-1.4-11.1-1.4-17.5,0.4c-12.7,3.6-21.1,12.7-19,20.5c2.2,7.8,14.1,11,26.8,7.4
	c12.7-3.6,21.1-12.7,19-20.5C2103.8,1545,2100.5,1542.4,2095.6,1541z M2167,1493.4c-7.4,0.4-16.1,3.5-24.2,8.9
	c-16.1,10.9-23.6,27.2-17.1,36.8c6.5,9.6,24.8,8.7,40.9-2.2c16.1-10.9,23.6-27.6,17.1-37.2C2180.5,1495,2174.4,1493,2167,1493.4z
	 M2269,1275.1c-9.3-0.3-17.3,12.6-17.9,29c-0.5,16.4,6.7,30.2,16,30.5c9.3,0.3,17.3-12.9,17.9-29.4
	C2285.5,1288.8,2278.2,1275.4,2269,1275.1z M1998.9,1227.9c43.5-0.6,79.4,34.7,80,78.5c0.6,43.8-34.3,79.8-77.7,80.3
	c-43.5,0.6-79-34.7-79.6-78.5C1921,1264.4,1955.5,1228.5,1998.9,1227.9z M2242.2,1164.7c-13.6,4.3-17.8,29.4-9.3,56.2
	c8.5,26.8,26.6,45.2,40.2,40.9c13.6-4.3,17.4-29.4,8.9-56.2C2273.5,1178.8,2255.8,1160.4,2242.2,1164.7z M1984.4,1153.9l-67.7,23.1
	l11.5,29.8l-16,16.4l-30.9-10.4l-29,66.2l31.2,13l-3,23.8l-32.4,7.1l27.1,72.5l29.4-14.9l17.1,19.3l-17.5,25.3l66.2,32.4l10.4-30.1
	l30.1,2.2l4.8,27.5l69.5-21.9l-13.4-27.1l23.1-21.9l22.3,16l30.5-64.7l-27.9-10.4v-28.3l30.1-8.6l-22.3-68.4l-30.5,11.2l-16.4-20.8
	l14.5-23.8l-64.7-33.8l-14.1,30.1h-21.9L1984.4,1153.9z M1816.7,1085.1c-5.3,1.8-11.1,5.5-16,11.2c-9.7,11.3-12.2,25.2-5.6,30.9
	c6.6,5.7,19.7,1.2,29.4-10c9.7-11.3,12.2-25.2,5.6-30.9C1826.8,1083.4,1822,1083.3,1816.7,1085.1z"/><path fill="#308cc4" d="M323.2,916.5l330.1,82.8c54.2,13.6,98.2,69.9,98.2,125.8v202.4c0,29.8,1.9,143.3-24.9,149.2
	c-32.3,7.1-48.3-31.1-73.8-25.3l-339.3,78c-54.5,12.5-98-22.6-97.1-78.5l7-457.7C224.3,937.2,269,902.9,323.2,916.5z"/><path fill="#fff" d="M419.9,1025l18.8,28.9c0,0,8.1,11.1-4.4,19.2c-12.4,8.1-17.9-2.5-17.9-2.5l-19.8-29.5c0,0-10.5,31,10,59
	c8.8,12,18.4,13.3,28.3,15.1c8,1.5,13.8,11,13.8,11l72.2,114.6l-56.5,89.5c0,0-4.4,7.6-10.7,8.2c-10.3,1-22.1,0.7-33.6,22
	c-17.3,32.1-5.7,54-5.7,54l18.5-28.6c0,0,7.4-13.6,20.4-0.6c8.8,8.8,4.1,19.2,4.1,19.2l-15.4,29.2c0,0,21.5,0.3,34.9-22.9
	c10.1-17.6,8.3-31,6.9-43.3c-1.1-9.9,5.7-19.2,5.7-19.2l49.6-78.8l33.3,52.8c0,0,6.4,9.3,5.3,19.2c-1.4,12.3-3.2,25.7,6.9,43.3
	c13.4,23.2,35.2,22.9,35.2,22.9l-15.4-29.5c0,0-5.1-10.3,3.8-19.2c13-13,20.4,0.9,20.4,0.9l18.5,28.3c0,0,11.7-21.6-5.6-53.7
	c-11.5-21.3-23.3-21.3-33.6-22.3c-6.3-0.6-10.7-7.9-10.7-7.9l-40.2-63.4l55.9-88.5c0,0,5.8-9.2,13.8-10.7
	c9.9-1.8,19.5-3.4,28.3-15.4c20.6-28,10.1-58.7,10.1-58.7l-19.8,29.2c0,0-5.1,10.9-17.6,2.8c-12.5-8.1-4.7-19.2-4.7-19.2l19.2-28.9
	c0,0-25.4-5.1-39.3,16.3c-8.8,13.6-7.4,21-6.6,38.6c0.6,14.3-6.9,26.1-6.9,26.1l-50.2,79.4l-66.9-105.8c0,0-7.5-11.4-6.9-25.7
	c0.8-17.6,2.5-25.4-6.3-38.9C445.3,1019.9,419.9,1025,419.9,1025z"/><path fill="#1a6089" d="M654.6,1450.4c-24.8,5.8-47.4,11.3-47.4,11.3s29.8-1.8,47.7,17c20.8,21.8,71.9-2.2,71.9-2.2
	s-20.7,3.7-39.2-12.2C682.2,1459.6,665.4,1447.9,654.6,1450.4z M286.3,914.7c-25.5,4.3-44.4,20.2-53.7,37.7
	c-12.3,23.3-10,58.1-10,58.1s-4.8,321.3-5.7,399.7c-0.3,29-8.6,75.3,24.5,103.3c25.2,21.4,46.6,21.3,81.3,14.1
	c35.6-7.4,57.4-13.5,57.4-13.5c0,0-54,3.3-73.1-19.4c-18-21.4-16-58.8-16-58.8s-4.6-214.5-2.8-344.2c0.6-47.8,1.1-91.6,1.9-121.2
	c1.2-45,23.9-55.9,23.9-55.9C304,913.1,294.8,913.3,286.3,914.7z"/><path fill="#4d7938" d="M1582.9,471c0-27.5,22.3-49.9,49.9-49.9h312.9c27.5,0,49.9,22.3,49.9,49.9v261.8c0,27.5-22.3,49.9-49.9,49.9
	h-312.9l-24-24.7l-25.9-25.2V471z"/><path fill="#679f42" d="M1560,471c0-27.5,22.3-49.9,49.9-49.9h312.9c27.5,0,49.9,22.3,49.9,49.9v261.8c0,27.5-22.3,49.9-49.9,49.9
	h-312.9c-15.7,0-55.2,20.2-64.4,8.8c-6.9-8.6,14.5-46.8,14.5-58.7V471z"/><path fill="#2a1f1c" d="M1776.9,581.7l-4.1,111.3l-57-0.3L1776.9,581.7z M1809,460.5l-164,273.7l162.1,1.9L1809,460.5z M1871.1,459.2
	l-19,25.6v240.7c0,0-0.9,14.3,19.3,14.3c18,0.1,18.1-14.3,18.1-14.3V484.8L1871.1,459.2z"/><path fill="#fff" d="M1761.6,581.7l-4.4,111.3l-57-0.3L1761.6,581.7z M1793.4,460.5l-163.7,273.7l161.8,1.9L1793.4,460.5z
	 M1855.5,459.2l-18.7,25.6v240.7c0,0-1.2,14.3,19,14.3c18,0.1,18.1-14.3,18.1-14.3V484.8L1855.5,459.2z"/></svg>