<svg xmlns="http://www.w3.org/2000/svg" viewBox="0 0 53 53"><path fill="#c6c6f7" d="M50.18 5.648v39.233a3.228 3.228 0 0 1-3.228 3.228h-30.33a3.228 3.228 0 0 1-3.227-3.228V5.648a3.228 3.228 0 0 1 3.228-3.228h30.33a3.228 3.228 0 0 1 3.227 3.228z"/><path fill="#deddff" d="M47.712 8.116V47.35a3.228 3.228 0 0 1-3.228 3.228h-30.33a3.228 3.228 0 0 1-3.228-3.228V8.116a3.228 3.228 0 0 1 3.228-3.228h30.33a3.228 3.228 0 0 1 3.228 3.228z"/><path fill="#c6c6f7" d="M16.394 50.58h-2.238a3.23 3.23 0 0 1-3.228-3.228V8.12a3.224 3.224 0 0 1 3.228-3.229h2.238a3.23 3.23 0 0 0-3.228 3.229v39.232a3.238 3.238 0 0 0 3.228 3.228z"/><path fill="#3e7fff" d="M44.448 12.05H19.06a.4.4 0 0 1 0-.8h25.388a.4.4 0 0 1 0 .8z"/><path fill="#3e7fff" d="m20.55 13.165-1.718-1.188a.401.401 0 0 1 0-.66l1.719-1.182a.401.401 0 0 1 .454.659l-1.241.854 1.242.859a.4.4 0 0 1-.456.658zm21.85-.102a.4.4 0 0 1 .103-.557l1.24-.854-1.241-.859a.4.4 0 0 1 .455-.658l1.718 1.189a.401.401 0 0 1 0 .658l-1.72 1.184a.4.4 0 0 1-.555-.103zM15.934 38.29a.4.4 0 0 1-.4-.4V13.787a.4.4 0 0 1 .8 0V37.89a.4.4 0 0 1-.4.4z"/><path fill="#3e7fff" d="M15.931 38.29a.4.4 0 0 1-.33-.173l-1.182-1.719a.4.4 0 0 1 .659-.453l.854 1.241.859-1.242a.4.4 0 1 1 .658.455l-1.189 1.72a.4.4 0 0 1-.329.172zm.86-22.558-.855-1.24-.859 1.241a.4.4 0 0 1-.658-.455l1.188-1.719a.4.4 0 0 1 .659 0l1.183 1.72a.4.4 0 0 1-.659.453z"/><path fill="#312e4b" d="M22.477 18.09a.4.4 0 0 1-.4-.399v-1.934a.4.4 0 0 1 .8 0v1.934a.4.4 0 0 1-.4.4zm18.554 0a.4.4 0 0 1-.4-.399v-1.934a.4.4 0 0 1 .8 0v1.934a.4.4 0 0 1-.4.4z"/><path fill="#312e4b" d="M21.012 18.09a.4.4 0 0 1 0-.799h21.484a.4.4 0 0 1 0 .8H21.012zm1.465 19.879a.4.4 0 0 1-.4-.4v-17.66a.4.4 0 0 1 .8 0v17.66a.4.4 0 0 1-.4.4z"/><path fill="#312e4b" d="M22.477 35.977h-1.465a.4.4 0 0 1 0-.8h1.465a.4.4 0 0 1 0 .8zM41.03 37.97a.4.4 0 0 1-.4-.4v-17.66a.4.4 0 0 1 .8 0v17.66a.4.4 0 0 1-.4.4z"/><path fill="#312e4b" d="M41.03 25.33H22.478a.4.4 0 0 1 0-.8H41.03a.4.4 0 0 1 0 .8zm1.466 10.647H30.573a.4.4 0 0 1-.4-.4v-8.051a.4.4 0 0 1 .8 0v7.651h11.523a.4.4 0 0 1 0 .8z"/><path fill="#312e4b" d="M30.573 30.002h-4.957a.4.4 0 0 1 0-.8h4.957a.4.4 0 0 1 0 .8zM30.573 35.977h-4.957a.4.4 0 0 1 0-.8h4.957a.4.4 0 0 1 0 .8z"/><path fill="#fcb73e" d="M16.34 48.314h26.854c.565 0 1.023-.458 1.023-1.023v-4.97c0-.565-.458-1.023-1.024-1.023H16.34c-.565 0-1.023.458-1.023 1.023v4.97c0 .565.459 1.023 1.024 1.023z"/><path fill="#fd982e" d="M16.343 48.312h26.849a1.02 1.02 0 0 0 1.023-1.023v-1.597c0 .563-.455 1.024-1.023 1.024h-26.85c-.567 0-1.023-.46-1.023-1.024v1.597a1.02 1.02 0 0 0 1.024 1.023z"/><path fill="#312e4b" d="M18.59 43.181c.174 0 .314-.14.314-.314v-1.57h-.629v1.57c0 .174.14.314.314.314zm2.483.386c.174 0 .315-.141.315-.315v-1.954h-.63v1.954c0 .174.142.315.315.315zm2.484-.386c.174 0 .315-.14.315-.314v-1.57h-.63v1.57c0 .174.142.314.315.314zm2.484.386c.174 0 .315-.141.315-.315v-1.954h-.63v1.954c0 .174.141.315.315.315zm2.484-.386c.174 0 .315-.14.315-.314v-1.57h-.63v1.57c0 .174.141.314.315.314zm2.484.386c.174 0 .315-.141.315-.315v-1.954h-.63v1.954c0 .174.141.315.315.315zm2.484-.386c.174 0 .314-.14.314-.314v-1.57h-.629v1.57c0 .174.14.314.315.314zm2.483.386c.175 0 .315-.141.315-.315v-1.954h-.629v1.954c0 .174.14.315.314.315zm2.484-.386c.174 0 .315-.14.315-.314v-1.57h-.63v1.57c0 .174.142.314.315.314zm2.484.386c.174 0 .315-.141.315-.315v-1.954h-.63v1.954c0 .174.141.315.315.315z"/><path fill="#179c5f" d="m8.379 19.064-.037 25.347-5.177.012.036-25.359z"/><path fill="#46cc6b" d="m5.79 19.064-.037 25.353-2.588.006.036-25.359z"/><path fill="#312e4b" d="m8.376 14.095.004 1.573-5.178.01-.003-1.571a2.588 2.588 0 1 1 5.178-.011z"/><path fill="#ffaf93" d="m8.342 44.411-2.575 6.166-2.602-6.154z"/><path fill="#312e4b" d="m4.771 48.221.996 2.356.986-2.36z"/><path fill="#deddff" d="M2.82 16.263c0 .326.266.59.593.59l4.728-.004a.59.59 0 0 0-.003-1.179l-4.729.004a.59.59 0 0 0-.59.59z"/><path fill="#c6c6f7" d="M2.82 17.445c0 .326.266.59.593.59l4.728-.004a.59.59 0 0 0-.003-1.179l-4.729.004a.59.59 0 0 0-.59.59z"/><path fill="#deddff" d="M2.82 18.627c0 .326.266.59.593.59l4.728-.004a.59.59 0 0 0-.003-1.179l-4.729.004a.59.59 0 0 0-.59.59z"/></svg>