<svg xmlns="http://www.w3.org/2000/svg"
    version="1.1" xmlns:xlink="http://www.w3.org/1999/xlink" xmlns:svgjs="http://svgjs.dev/svgjs" width="1500"
    height="458" viewBox="0 0 1500 458"><g transform="matrix(1,0,0,1,-0.9090909090911055,0.0749398207041736)"><svg viewBox="0 0 396 121" data-background-color="#ffffff" preserveAspectRatio="xMidYMid meet" height="458" width="1500" xmlns="http://www.w3.org/2000/svg" xmlns:xlink="http://www.w3.org/1999/xlink"><g id="tight-bounds" transform="matrix(1,0,0,1,0.24000000000003752,-0.019798511583417167)"><svg viewBox="0 0 395.5199999999999 121.03959702316686" height="121.03959702316686" width="395.5199999999999"><g><svg viewBox="0 0 631.7039886441298 193.31815388201017" height="121.03959702316686" width="395.5199999999999"><g transform="matrix(1,0,0,1,236.18398864412984,59.73811554260742)"><svg viewBox="0 0 395.52 73.84192279679533" height="73.84192279679533" width="395.52"><g id="textblocktransform"><svg viewBox="0 0 395.52 73.84192279679533" height="73.84192279679533" width="395.52" id="textblock"><g><svg viewBox="0 0 395.52 73.84192279679533" height="73.84192279679533" width="395.52"><g transform="matrix(1,0,0,1,0,0)"><svg width="395.52" viewBox="3.54 -37.55 201.11 37.55" height="73.84192279679533" data-palette-color="#b19dd0"><path d="M32.47-20.7L32.47-14.31 12.43-14.31 12.43-20.7 32.47-20.7ZM35.33-6.35L35.33 0 12.43 0Q11.11 0 9.55-0.46 7.98-0.93 6.65-1.99 5.32-3.05 4.43-4.75 3.54-6.45 3.54-8.91L3.54-8.91 3.54-31.81Q3.54-32.47 3.78-33.06 4.03-33.64 4.46-34.08 4.88-34.52 5.47-34.77 6.05-35.01 6.74-35.01L6.74-35.01 35.33-35.01 35.33-28.66 9.89-28.66 9.89-8.91Q9.89-7.67 10.55-7.01 11.21-6.35 12.48-6.35L12.48-6.35 35.33-6.35ZM63.69-26.39L63.69-20.04 49.41-20.04Q48.12-20.04 47.46-19.4 46.8-18.75 46.8-17.5L46.8-17.5 46.8 0 40.45 0 40.45-17.5Q40.45-19.14 40.87-20.43 41.28-21.73 41.98-22.72 42.67-23.71 43.58-24.4 44.48-25.1 45.47-25.54 46.46-25.98 47.47-26.18 48.48-26.39 49.36-26.39L49.36-26.39 63.69-26.39ZM71.06-3.2L71.06-3.2Q71.06-2.54 70.81-1.97 70.55-1.39 70.12-0.96 69.7-0.54 69.12-0.29 68.55-0.05 67.91-0.05L67.91-0.05Q67.26-0.05 66.68-0.29 66.11-0.54 65.68-0.96 65.25-1.39 65.01-1.97 64.77-2.54 64.77-3.2L64.77-3.2Q64.77-3.83 65.01-4.41 65.25-4.98 65.68-5.41 66.11-5.83 66.68-6.09 67.26-6.35 67.91-6.35L67.91-6.35Q68.55-6.35 69.12-6.09 69.7-5.83 70.12-5.41 70.55-4.98 70.81-4.41 71.06-3.83 71.06-3.2ZM104.97-37.55L104.97-8.91Q104.97-7.28 104.56-5.97 104.14-4.66 103.46-3.67 102.78-2.69 101.87-1.99 100.97-1.29 99.98-0.85 98.99-0.42 97.98-0.21 96.97 0 96.06 0L96.06 0 84.61 0Q82.98 0 81.68-0.42 80.39-0.83 79.4-1.53 78.41-2.22 77.71-3.13 77.02-4.03 76.58-5.02 76.14-6.01 75.93-7.02 75.72-8.03 75.72-8.91L75.72-8.91 75.72-17.5Q75.72-19.95 76.62-21.64 77.51-23.34 78.84-24.4 80.17-25.46 81.73-25.93 83.29-26.39 84.61-26.39L84.61-26.39 96.06-26.39 96.06-20.04 84.66-20.04Q83.39-20.04 82.73-19.4 82.07-18.75 82.07-17.5L82.07-17.5 82.07-8.96Q82.07-7.67 82.72-7.01 83.37-6.35 84.61-6.35L84.61-6.35 96.06-6.35Q97.36-6.35 97.99-7.01 98.63-7.67 98.63-8.91L98.63-8.91 98.63-37.55 104.97-37.55ZM139.42-17.65L139.42-17.65Q139.42-16.33 138.95-14.81 138.49-13.28 137.45-11.98 136.42-10.67 134.74-9.79 133.07-8.91 130.68-8.91L130.68-8.91 119.23-8.91 119.23-14.94 130.68-14.94Q131.97-14.94 132.68-15.73 133.39-16.53 133.39-17.7L133.39-17.7Q133.39-18.95 132.59-19.65 131.8-20.36 130.68-20.36L130.68-20.36 119.23-20.36Q117.93-20.36 117.23-19.57 116.52-18.77 116.52-17.6L116.52-17.6 116.52-8.74Q116.52-7.47 117.31-6.76 118.11-6.05 119.28-6.05L119.28-6.05 130.68-6.05 130.68 0 119.23 0Q117.91 0 116.38-0.46 114.86-0.93 113.55-1.97 112.25-3 111.37-4.68 110.49-6.35 110.49-8.74L110.49-8.74 110.49-17.65Q110.49-18.97 110.95-20.5 111.42-22.02 112.45-23.33 113.49-24.63 115.16-25.51 116.84-26.39 119.23-26.39L119.23-26.39 130.68-26.39Q132-26.39 133.52-25.93 135.05-25.46 136.35-24.43 137.66-23.39 138.54-21.72 139.42-20.04 139.42-17.65ZM169.2-8.91L169.2-8.91Q169.2-7.28 168.79-5.97 168.37-4.66 167.69-3.67 167-2.69 166.1-1.99 165.2-1.29 164.21-0.85 163.22-0.42 162.21-0.21 161.19 0 160.29 0L160.29 0 143.1 0 143.1-6.35 160.24-6.35Q161.54-6.35 162.19-7.01 162.85-7.67 162.85-8.91L162.85-8.91Q162.73-11.45 160.29-11.45L160.29-11.45 150.45-11.45Q148.35-11.45 146.89-12.18 145.42-12.92 144.51-14.01 143.59-15.11 143.19-16.38 142.79-17.65 142.79-18.75L142.79-18.75Q142.79-20.87 143.54-22.33 144.3-23.78 145.45-24.68 146.59-25.59 147.94-25.99 149.28-26.39 150.45-26.39L150.45-26.39 166.05-26.39 166.05-20.04 150.5-20.04Q150.01-20.04 149.73-19.93 149.45-19.82 149.32-19.64 149.18-19.46 149.16-19.25 149.13-19.04 149.13-18.85L149.13-18.85Q149.16-18.46 149.28-18.24 149.4-18.02 149.58-17.92 149.77-17.82 150-17.81 150.23-17.8 150.45-17.8L150.45-17.8 160.29-17.8Q162.73-17.8 164.44-16.92 166.15-16.04 167.2-14.71 168.25-13.38 168.73-11.82 169.2-10.25 169.2-8.91ZM189.71-14.4L204.65 0 195.49 0 182.7-12.35Q181.63-13.33 181.7-14.79L181.7-14.79Q181.75-15.48 182.05-16.08 182.36-16.67 182.9-17.09L182.9-17.09 194.49-26.44 204.65-26.44 189.71-14.4ZM180.09-37.55L180.09 0 173.74 0 173.74-37.55 180.09-37.55Z" opacity="1" transform="matrix(1,0,0,1,0,0)" fill="#b19dd0" class="wordmark-text-0" data-fill-palette-color="primary" id="text-0"></path></svg></g></svg></g></svg></g></svg></g><g><svg viewBox="0 0 218.75168287795358 193.31815388201017" height="193.31815388201017" width="218.75168287795358"><g><svg xmlns="http://www.w3.org/2000/svg" xmlns:xlink="http://www.w3.org/1999/xlink" version="1.1" x="0" y="0" viewBox="5 10.232 90 79.536" enable-background="new 0 0 100 100" xml:space="preserve" height="193.31815388201017" width="218.75168287795358" class="icon-icon-0" data-fill-palette-color="accent" id="icon-0"><path fill-rule="evenodd" clip-rule="evenodd" d="M50 10.232c5.201 0 9.418 4.218 9.418 9.418 0 5.202-4.217 9.418-9.418 9.418-5.2 0-9.418-4.217-9.418-9.418C40.582 14.45 44.8 10.232 50 10.232" fill="#b19dd0" data-fill-palette-color="accent"></path><path fill-rule="evenodd" clip-rule="evenodd" d="M38.488 42.675L38.488 42.675c0-6.357 5.156-11.513 11.512-11.513s11.511 5.153 11.513 11.509v0.004 5.232H38.488V42.675z" fill="#b19dd0" data-fill-palette-color="accent"></path><polygon fill-rule="evenodd" clip-rule="evenodd" points="95,52.093 95,54.187 95,56.279 92.907,56.279 88.722,56.279   88.722,79.928 88.722,83.488 88.722,85.581 86.629,85.581 84.535,85.581 84.535,87.675 84.535,89.768 82.442,89.768 80.35,89.768   80.35,87.675 80.35,85.581 19.651,85.581 19.651,87.675 19.651,89.768 17.558,89.768 15.465,89.768 15.465,87.675 15.465,85.581   13.372,85.581 11.279,85.581 11.279,83.488 11.279,79.928 11.279,56.279 7.093,56.279 5,56.279 5,54.187 5,52.093 5,50 7.093,50   92.907,50 95,50 " fill="#b19dd0" data-fill-palette-color="accent"></polygon></svg></g></svg></g></svg></g><defs></defs></svg><rect width="395.5199999999999" height="121.03959702316686" fill="none" stroke="none" visibility="hidden"></rect></g></svg></g></svg>