<svg xmlns="http://www.w3.org/2000/svg" viewBox="0 0 70 70"><path fill="#fbfbfb" d="M66.63 58.34c0 2.89-2.3 5.21-5.15 5.21H6.38c-1.66 0-3-1.34-3-3V19.82c0-1.66 1.34-3 3-3H57.3v36.33h4.18c1.43 0 2.71.57 3.64 1.51.94.94 1.51 2.25 1.51 3.68z"/><path fill="#e5e5e5" d="M66.63 58.34c0 2.64-1.92 4.8-4.42 5.15.05-.26.07-.53.07-.8 0-1.43-.57-2.74-1.51-3.68a5.081 5.081 0 0 0-3.64-1.51h-4.18V21.17H3.38v-1.35c0-1.66 1.34-3 3-3H57.3v36.33h4.18c1.43 0 2.71.57 3.64 1.51.94.94 1.51 2.25 1.51 3.68z"/><path fill="#f0373c" d="M47.643 38.167h-3.677v19.988H16.713V38.167h-3.678l17.304-15.952z"/><path fill="#d5202a" d="M47.64 38.17h-3.67v19.98h-6.08V39.204c0-.571.462-1.034 1.033-1.034.942 0 1.393-1.156.701-1.794L27.31 25.02l3.03-2.8 17.3 15.95z"/><path fill="#fe5c6e" d="M16.83 38.17a3.68 3.68 0 0 1 3.68 3.68v16.3h-3.8V38.17h-3.67l17.3-15.95 1.9 1.75-15.41 14.2z"/><path fill="#cbdfed" d="M35.573 47.282v10.873H25.1V47.282c0-.73.59-1.314 1.313-1.314h7.848c.729 0 1.313.585 1.313 1.314z"/><circle cx="30.339" cy="35.416" r="3.794" fill="#ffca0f"/><path fill="#59b9ff" d="M66.629 11.658v46.68c0-1.428-.57-2.736-1.507-3.672a5.091 5.091 0 0 0-3.643-1.524h-4.18V6.45h4.18a5.14 5.14 0 0 1 3.643 1.524 5.185 5.185 0 0 1 1.507 3.684z"/><path fill="#489cd5" d="M57.302 6.451h3.1v46.69h-3.1z"/><path fill="#b4dff9" d="M66.632 23.077V11.661c0-1.44-.57-2.75-1.51-3.69-.94-.93-2.22-1.52-3.64-1.52h-2.23c1.43 0 2.71.59 3.64 1.52.94.94 1.51 2.25 1.51 3.69v9.186a2.23 2.23 0 0 0 2.23 2.23z"/><path fill="#15201f" d="M30.845 21.665a.731.731 0 0 0-1.01 0l-17.31 15.95c-.23.21-.3.54-.19.82.11.29.39.48.7.48h2.93v19.24c0 .41.33.75.75.75h27.25c.42 0 .75-.34.75-.75v-19.24h2.93c.31 0 .58-.19.7-.48.11-.28.03-.61-.19-.82l-17.31-15.95zm-5 35.74v-10.12c0-.31.26-.57.57-.57h7.84c.32 0 .57.25.57.57v10.12h-8.98zm18.12-19.99c-.41 0-.75.34-.75.75v19.24h-6.89v-10.12c0-1.14-.93-2.07-2.07-2.07h-7.84c-1.14 0-2.07.93-2.07 2.07v10.12h-6.88v-19.24c0-.41-.34-.75-.75-.75h-1.76l15.38-14.18 15.39 14.18h-1.76z"/><path fill="#15201f" d="M25.795 35.415a4.545 4.545 0 0 0 9.09 0c0-2.5-2.04-4.54-4.55-4.54a4.55 4.55 0 0 0-4.54 4.54zm7.59 0a3.045 3.045 0 0 1-6.09 0 3.045 3.045 0 0 1 6.09 0z"/><path fill="#15201f" d="M61.475 5.695h-4.18c-.41 0-.75.34-.75.75v9.63H6.375c-2.06 0-3.75 1.68-3.75 3.75v40.73c0 2.06 1.69 3.75 3.75 3.75h55.1c3.26 0 5.9-2.68 5.9-5.96v-46.69a5.92 5.92 0 0 0-5.9-5.96zm0 57.11h-55.1c-1.24 0-2.25-1.01-2.25-2.25v-40.73c0-1.25 1.01-2.25 2.25-2.25h50.17v35.57c0 .41.34.75.75.75h4.18a4.41 4.41 0 0 1 4.4 4.44v.01c0 2.45-1.97 4.46-4.4 4.46zm0-10.41h-3.43v-45.2h3.43c2.31 0 4.4 1.865 4.4 4.46v42.72a5.835 5.835 0 0 0-4.4-1.98z"/></svg>