<svg xmlns="http://www.w3.org/2000/svg" enable-background="new 0 0 256 256" viewBox="0 0 256 256"><circle cx="232.5" cy="61.779" r="12" fill="#f5c84c"/><circle cx="232.5" cy="151.779" r="12" fill="#87d147"/><circle cx="20.5" cy="127.779" r="12" fill="#70d6f9"/><circle cx="20.5" cy="193.779" r="12" fill="#fc657e"/><polygon fill="#9be5f9" points="128 42.362 75.863 92.137 75.863 222.196 180.137 222.196 180.137 92.137"/><rect width="21.141" height="47.367" x="95.285" y="104.18" fill="#5290db"/><rect width="21.141" height="47.367" x="137.567" y="104.18" fill="#5290db"/><rect width="21.141" height="41.747" x="95.285" y="180.449" fill="#5290db"/><rect width="21.141" height="41.747" x="139.574" y="180.449" fill="#5290db"/><circle cx="46.413" cy="161.679" r="3.4" fill="#f5c84c"/><circle cx="252.6" cy="115.679" r="3.4" fill="#fc657e"/><path fill="#70d6f9" d="M65.3125,37.4788c-3.1-0.6-5.6-3-6.2-6.1c0-0.1-0.3-0.1-0.3,0c-0.6,3.1-3.1,5.5-6.2,6.1
						c-0.1,0-0.1,0.2,0,0.3c3.1,0.6,5.6,3,6.2,6.1c0,0.1,0.3,0.1,0.3,0c0.6-3.1,3.1-5.5,6.2-6.1
						C65.4125,37.6788,65.4125,37.4788,65.3125,37.4788z"/><path fill="#f5c84c" d="M211.15,215.0288c4.5-0.8,8-4.3,8.9-8.7c0-0.2,0.4-0.2,0.4,0c0.9,4.4,4.4,7.9,8.9,8.7c0.2,0,0.2,0.3,0,0.4
						c-4.5,0.8-8,4.3-8.9,8.7c0,0.2-0.4,0.2-0.4,0c-0.9-4.4-4.4-7.9-8.9-8.7C210.95,215.3288,210.95,215.0288,211.15,215.0288z"/><path fill="#87d147" d="M3.205,84.7788h2.3v2.3c0,1.8,1.4,3.2,3.2,3.2c1.7,0,3.2-1.4,3.2-3.1v-0.1v-2.3h2.3
						c1.8,0,3.2-1.4,3.2-3.2c0-1.7-1.4-3.2-3.1-3.2h-0.1h-2.3v-2.3c0-1.8-1.4-3.2-3.2-3.2c-1.7,0-3.2,1.4-3.2,3.1v0.1v2.3h-2.3
						c-1.8,0-3.2,1.4-3.2,3.2C-0.0949,83.2788,1.3051,84.7788,3.205,84.7788C3.1051,84.7788,3.1051,84.7788,3.205,84.7788z"/><path d="M189.6162 224.6963H66.3838c-1.3809 0-2.5-1.1191-2.5-2.5s1.1191-2.5 2.5-2.5h123.2324c1.3809 0 2.5 1.1191 2.5 2.5S190.9971 224.6963 189.6162 224.6963zM63.9922 105.9697c-.6592 0-1.3174-.2588-1.8086-.7734-.9531-.999-.916-2.5811.082-3.5352l16.6162-15.8623c.998-.9521 2.5811-.918 3.5352.082.9531.999.916 2.5811-.082 3.5352l-16.6162 15.8623C65.2344 105.7402 64.6133 105.9697 63.9922 105.9697zM192.0078 105.9697c-.6211 0-1.2422-.2295-1.7266-.6914l-16.6084-15.8555c-.998-.9541-1.0352-2.5361-.082-3.5352.9531-1 2.5361-1.0352 3.5352-.082l16.6084 15.8555c.998.9541 1.0352 2.5361.082 3.5352C193.3252 105.7109 192.667 105.9697 192.0078 105.9697zM177.8701 154.0469H78.1299c-1.3809 0-2.5-1.1191-2.5-2.5s1.1191-2.5 2.5-2.5h99.7402c1.3809 0 2.5 1.1191 2.5 2.5S179.251 154.0469 177.8701 154.0469zM177.1738 130.2793H77.6221c-1.3809 0-2.5-1.1191-2.5-2.5s1.1191-2.5 2.5-2.5h99.5518c1.3809 0 2.5 1.1191 2.5 2.5S178.5547 130.2793 177.1738 130.2793zM232.5 76.2793c-7.9951 0-14.5-6.5049-14.5-14.5s6.5049-14.5 14.5-14.5 14.5 6.5049 14.5 14.5S240.4951 76.2793 232.5 76.2793zM232.5 52.2793c-5.2383 0-9.5 4.2617-9.5 9.5s4.2617 9.5 9.5 9.5 9.5-4.2617 9.5-9.5S237.7383 52.2793 232.5 52.2793z"/><path d="M219.5 64.2793h-55c-1.3809 0-2.5-1.1191-2.5-2.5s1.1191-2.5 2.5-2.5h55c1.3809 0 2.5 1.1191 2.5 2.5S220.8809 64.2793 219.5 64.2793zM232.5 166.2793c-7.9951 0-14.5-6.5049-14.5-14.5s6.5049-14.5 14.5-14.5 14.5 6.5049 14.5 14.5S240.4951 166.2793 232.5 166.2793zM232.5 142.2793c-5.2383 0-9.5 4.2617-9.5 9.5s4.2617 9.5 9.5 9.5 9.5-4.2617 9.5-9.5S237.7383 142.2793 232.5 142.2793z"/><path d="M219.5 154.2793h-30c-1.3809 0-2.5-1.1191-2.5-2.5s1.1191-2.5 2.5-2.5h30c1.3809 0 2.5 1.1191 2.5 2.5S220.8809 154.2793 219.5 154.2793zM20.5 142.2793c-7.9951 0-14.5-6.5049-14.5-14.5s6.5049-14.5 14.5-14.5 14.5 6.5049 14.5 14.5S28.4951 142.2793 20.5 142.2793zM20.5 118.2793c-5.2383 0-9.5 4.2617-9.5 9.5s4.2617 9.5 9.5 9.5 9.5-4.2617 9.5-9.5S25.7383 118.2793 20.5 118.2793z"/><path d="M64.5 130.2793h-31c-1.3809 0-2.5-1.1191-2.5-2.5s1.1191-2.5 2.5-2.5h31c1.3809 0 2.5 1.1191 2.5 2.5S65.8809 130.2793 64.5 130.2793zM20.5 208.2793c-7.9951 0-14.5-6.5049-14.5-14.5s6.5049-14.5 14.5-14.5 14.5 6.5049 14.5 14.5S28.4951 208.2793 20.5 208.2793zM20.5 184.2793c-5.2383 0-9.5 4.2617-9.5 9.5s4.2617 9.5 9.5 9.5 9.5-4.2617 9.5-9.5S25.7383 184.2793 20.5 184.2793z"/><path d="M84.5,196.2793h-51c-1.3809,0-2.5-1.1191-2.5-2.5s1.1191-2.5,2.5-2.5h51c1.3809,0,2.5,1.1191,2.5,2.5
				S85.8809,196.2793,84.5,196.2793z"/><path d="M180.1367,224.6963H75.8633c-1.3809,0-2.5-1.1191-2.5-2.5V92.1367c0-0.6836,0.2793-1.3369,0.7734-1.8086l52.1367-49.7754
				c0.9668-0.9219,2.4863-0.9219,3.4531,0l52.1367,49.7754c0.4941,0.4717,0.7734,1.125,0.7734,1.8086v130.0596
				C182.6367,223.5771,181.5176,224.6963,180.1367,224.6963z M78.3633,219.6963h99.2734V93.2061L128,45.8174L78.3633,93.2061
				V219.6963z"/><path d="M116.4258 154.0469H95.2852c-1.3809 0-2.5-1.1191-2.5-2.5v-47.3672c0-1.3809 1.1191-2.5 2.5-2.5h21.1406c1.3809 0 2.5 1.1191 2.5 2.5v47.3672C118.9258 152.9277 117.8066 154.0469 116.4258 154.0469zM97.7852 149.0469h16.1406v-42.3672H97.7852V149.0469zM158.709 154.0469h-21.1416c-1.3809 0-2.5-1.1191-2.5-2.5v-47.3672c0-1.3809 1.1191-2.5 2.5-2.5h21.1416c1.3809 0 2.5 1.1191 2.5 2.5v47.3672C161.209 152.9277 160.0898 154.0469 158.709 154.0469zM140.0674 149.0469h16.1416v-42.3672h-16.1416V149.0469zM116.4258 224.6963H95.2852c-1.3809 0-2.5-1.1191-2.5-2.5v-41.7471c0-1.3809 1.1191-2.5 2.5-2.5h21.1406c1.3809 0 2.5 1.1191 2.5 2.5v41.7471C118.9258 223.5771 117.8066 224.6963 116.4258 224.6963zM97.7852 219.6963h16.1406v-36.7471H97.7852V219.6963zM160.7148 224.6963h-21.1406c-1.3809 0-2.5-1.1191-2.5-2.5v-41.7471c0-1.3809 1.1191-2.5 2.5-2.5h21.1406c1.3809 0 2.5 1.1191 2.5 2.5v41.7471C163.2148 223.5771 162.0957 224.6963 160.7148 224.6963zM142.0742 219.6963h16.1406v-36.7471h-16.1406V219.6963z"/></svg>