<svg xmlns="http://www.w3.org/2000/svg" data-name="Layer 1" viewBox="0 0 512 512"><path fill="#edb740" d="M360.12 66.69a50.166 50.166 0 1 1-48.29 36.35 50.236 50.236 0 0 1 48.29-36.35Z"/><path fill="#d8a43d" d="M339.84 146.95a50.228 50.228 0 0 1 30.3-79.259 50.234 50.234 0 1 0 .03 98.463 50.237 50.237 0 0 1-30.33-19.204Z"/><path fill="#ff7178" d="M423.49 219.23v93.55h-63.37v-93.55H423.49z"/><path fill="#e75163" d="M376.29 219.23h-16.17v93.55h19v-93.55h-2.83z"/><path fill="#5fa8ed" d="M360.12 219.23v93.55H275.3V103.04h36.53a50.243 50.243 0 0 0 48.29 64.12Z"/><path fill="#4689d3" d="M275.3 103.04h19v209.74h-19z"/><path fill="#ffc25f" d="M169.42 73.94H275.3v238.84H152.06V73.94h17.36z"/><path fill="#e8a467" d="M171.06 73.94h-19v238.84h19V73.94z"/><path fill="#b7ff8d" d="m127.47 160.5 22.86-11.25h1.73v163.53H70.34V188.61l21.9-10.78 35.23-17.33z"/><path fill="#9fd37d" d="m111.24 177.83 35.23-17.33 5.59-2.751v-8.499h-1.73l-22.86 11.25-35.23 17.33-21.9 10.78v124.17h19V188.61l21.9-10.78z"/><path fill="#f9b691" d="m343.78 383.47 8.08-4.26 48.6-26.22 5.84-3.15a26.556 26.556 0 0 1 35.36 9.67l-114.57 78.66a80.229 80.229 0 0 1-49.9 7.05l-66.22-12.2a24.656 24.656 0 0 0-18.02 2.39l-35.87 22.68-25.06-82.18.22-.07a43.047 43.047 0 0 0 20.79-10.18L164 355.9a73.311 73.311 0 0 1 76.01-7.43l4.55 2.2a52.339 52.339 0 0 0 22.8 5.23h44.07a32.78 32.78 0 0 1 32.35 27.57Z"/><path fill="#e8aa8b" d="m426.59 347.8-102.5 70.37a80.229 80.229 0 0 1-49.9 7.05l-66.22-12.2a24.656 24.656 0 0 0-18.02 2.39l-38.723 23.49 5.853 19.193 35.87-22.68a24.656 24.656 0 0 1 18.02-2.39l66.22 12.2a80.229 80.229 0 0 0 49.9-7.05l114.57-78.66a26.464 26.464 0 0 0-15.07-11.713Z"/><path fill="#eaac8c" d="m400.43 352.93.03.06-48.6 26.22-8.08 4.26a32.66 32.66 0 0 0-10.71-19.4l31.25-16.84 7.95-4.28c9.82-4.98 22.71.4 28.16 9.98Z"/><path fill="#f9b691" d="m363.93 346.51.39.72-31.25 16.84a32.585 32.585 0 0 0-21.64-8.17h-9.77l25.98-14.13a30.021 30.021 0 0 1 36.29 4.74Z"/><path fill="#e8aa8b" d="M344.19 393.66c-.075 0-.15 0-.225-.005l-37.591-1.7a181.367 181.367 0 0 0-32.939 1.518 5 5 0 0 1-1.37-9.907 191.619 191.619 0 0 1 34.76-1.6l31.868 1.441A27.782 27.782 0 0 0 311.43 360.9h-44.07a57.691 57.691 0 0 1-24.978-5.729l-4.549-2.2a68.047 68.047 0 0 0-70.665 6.8l-10.814 9.629a48.048 48.048 0 0 1-23.205 11.361 5 5 0 1 1-1.818-9.834 38.046 38.046 0 0 0 18.375-9l10.971-9.76c.1-.091.207-.178.316-.26a78.006 78.006 0 0 1 81.195-7.936l4.548 2.2a47.627 47.627 0 0 0 20.624 4.729h44.07a37.781 37.781 0 0 1 37.289 31.786 38.178 38.178 0 0 1 .471 5.974 5 5 0 0 1-5 5Z"/><path fill="#ffc25f" d="M217.43 44.65a5 5 0 0 1-5-5V16a5 5 0 0 1 10 0v23.65a5 5 0 0 1-5 5Z"/><path fill="#4a5160" d="M246.26 151.64H181.1a5 5 0 0 1 0-10h65.16a5 5 0 0 1 0 10zm91.7 57.42h-42.02a5 5 0 0 1 0-10h42.02a5 5 0 0 1 0 10zm-91.7-23.2H181.1a5 5 0 0 1 0-10h65.16a5 5 0 0 1 0 10zm0 34.23H181.1a5 5 0 0 1 0-10h65.16a5 5 0 0 1 0 10zm0 34.23H181.1a5 5 0 1 1 0-10h65.16a5 5 0 0 1 0 10zm0 34.23H181.1a5 5 0 1 1 0-10h65.16a5 5 0 0 1 0 10zm91.7-45.96h-42.02a5 5 0 0 1 0-10h42.02a5 5 0 0 1 0 10zm0 33.54h-42.02a5 5 0 1 1 0-10h42.02a5 5 0 0 1 0 10zm-19.09-100.61h-22.93a5 5 0 0 1 0-10h22.93a5 5 0 0 1 0 10zm-19.09-33.54h-3.84a5 5 0 0 1 0-10h3.84a5 5 0 0 1 0 10zm-53.52-24.57H181.1a5 5 0 0 1 0-10h65.16a5 5 0 0 1 0 10zm154.49 178.65H380.7a5 5 0 0 1 0-10h20.05a5 5 0 0 1 0 10zm0-22.63H380.7a5 5 0 0 1 0-10h20.05a5 5 0 0 1 0 10zm0-22.63H380.7a5 5 0 0 1 0-10h20.05a5 5 0 0 1 0 10z"/><path fill="#e75163" d="M391.81 207.59a5 5 0 0 1-5-5v-16.72a5 5 0 0 1 10 0v16.72a5 5 0 0 1-5 5Z"/><path fill="#9fd37d" d="M109.76 141.98a5 5 0 0 1-5-5v-9.84a5 5 0 0 1 10 0v9.84a5 5 0 0 1-5 5Z"/><path fill="#4a5160" d="M129.44 216.69H94.01a5 5 0 1 1 0-10h35.43a5 5 0 0 1 0 10zm0 22.96H94.01a5 5 0 0 1 0-10h35.43a5 5 0 0 1 0 10zm0 45.92H94.01a5 5 0 1 1 0-10h35.43a5 5 0 0 1 0 10zm0-22.96H94.01a5 5 0 1 1 0-10h35.43a5 5 0 0 1 0 10zm230.68-150.96a6.885 6.885 0 1 1 6.89-6.88 5 5 0 0 0 10 0 16.92 16.92 0 0 0-11.89-16.134V86.35a5 5 0 0 0-10 0v2.287a16.886 16.886 0 0 0 5 33.013 6.889 6.889 0 0 1 .032 13.778h-.064a6.892 6.892 0 0 1-6.848-6.888 5 5 0 1 0-10 0 16.919 16.919 0 0 0 11.88 16.133v2.827a5 5 0 0 0 10 0v-2.827a16.89 16.89 0 0 0-5-33.023z"/><path fill="#9fd37d" d="M127.47 138.08v22.42l-35.23 17.33-.19-.39v-39.36h35.42z"/><path fill="#b7ff8d" d="M111.05 138.08h-19v39.36l.19.39 18.81-9.253V138.08z"/><path fill="#e8a467" d="M169.42 40.12h88.52v33.82h-88.52z"/><path fill="#ffc25f" d="M169.42 40.12h19v33.82h-19z"/><path fill="#e75163" d="M376.29 203.42h31.04v15.81h-31.04z"/><path fill="#ff7178" d="M376.29 203.42h19v15.81h-19z"/><path fill="#fb6771" d="M157.08 458.09 168.64 496H89.05L71.37 350.97h53.05l7.6 24.94Z"/><path fill="#eadf53" d="M124.68 460.01a10.615 10.615 0 1 1-10.61 10.61 10.61 10.61 0 0 1 10.61-10.61Z"/></svg>