<svg xmlns="http://www.w3.org/2000/svg" viewBox="0 0 66 66"><pattern id="a" width="10.046" height="9.593" x="-516" y="-946" overflow="visible" patternUnits="userSpaceOnUse" viewBox="0 -9.593 10.046 9.593"><path fill="none" d="M0-9.593h10.046V0H0z"/><path fill="#9FACBD" d="M10.046 0H0v-9.593h10.046z"/></pattern><path fill="#F86868" d="M17.159 10.031H8.647c-.675 0-1.223.548-1.223 1.223v5.026c0 .675.548 1.223 1.223 1.223h8.511c.675 0 1.223-.547 1.223-1.223v-5.026a1.222 1.222 0 0 0-1.222-1.223z"/><path fill="#D3D6DD" d="M35.45 11.703h-8.511c-.675 0-1.223.547-1.223 1.223v3.354c0 .675.547 1.223 1.223 1.223h8.511c.676 0 1.223-.547 1.223-1.223v-3.354c0-.676-.547-1.223-1.223-1.223zM35.45 28.774h-8.511c-.675 0-1.223.547-1.223 1.223v3.354c0 .675.547 1.223 1.223 1.223h8.511c.676 0 1.223-.547 1.223-1.223v-3.354c0-.676-.547-1.223-1.223-1.223z"/><path fill="url(#a)" d="M31.276 47.451H7.425a.75.75 0 0 1 0-1.5h23.852a.75.75 0 1 1-.001 1.5zM31.276 44.052H7.425a.75.75 0 0 1 0-1.5h23.852a.75.75 0 1 1-.001 1.5zM31.276 40.653H7.425a.75.75 0 0 1 0-1.5h23.852a.75.75 0 1 1-.001 1.5z"/><path fill="#86D2FF" d="M46.382 10.031h4.247v4.572h-4.247zM54.057 10.031h4.247v4.572h-4.247zM46.382 18.034h4.247v4.572h-4.247zM54.057 18.034h4.247v4.572h-4.247z"/><path fill="#1EB975" d="M8.796 53.386v7.9h-2.85c-2.19 0-3.96-1.77-3.96-3.95a3.952 3.952 0 0 1 3.96-3.95h2.85z"/><path fill="#F9AE5B" d="M57.917 53.388v7.898l6.095-3.949z"/><path d="M64.25 3.959H1.75a.75.75 0 0 0-.75.75V50.1c0 .414.336.75.75.75h41.289a.75.75 0 0 0 .53-.22L64.78 29.419a.764.764 0 0 0 .213-.494c0-.013.007-.024.007-.037V4.709a.75.75 0 0 0-.75-.75zm-20.461 44.33V32.797a3.162 3.162 0 0 1 3.158-3.159h15.492l-18.65 18.651zM63.5 28.138H46.947a4.664 4.664 0 0 0-4.658 4.659v16.552H2.5V5.459h61v22.679z"/><path d="M8.648 18.253h3.066l-.017 4.883a.75.75 0 0 0 .75.752h10.157v7.786c0 .414.336.75.75.75h1.612v.927c0 1.088.886 1.973 1.974 1.973h8.511a1.975 1.975 0 0 0 1.973-1.973v-3.354a1.975 1.975 0 0 0-1.973-1.973H26.94a1.976 1.976 0 0 0-1.974 1.973v.927h-.862v-7.036h.862v.927c0 1.088.886 1.973 1.974 1.973h8.511a1.975 1.975 0 0 0 1.973-1.973v-3.354a1.975 1.975 0 0 0-1.973-1.973H26.94a1.976 1.976 0 0 0-1.974 1.973v.927h-.862v-7.035h.862v.927c0 1.088.886 1.973 1.974 1.973h8.511a1.975 1.975 0 0 0 1.973-1.973v-3.354a1.975 1.975 0 0 0-1.973-1.973H26.94a1.976 1.976 0 0 0-1.974 1.973v.927h-1.612a.75.75 0 0 0-.75.75v7.785H13.2l.014-4.135h3.945a1.976 1.976 0 0 0 1.974-1.973v-5.025a1.976 1.976 0 0 0-1.974-1.973H8.648a1.975 1.975 0 0 0-1.973 1.973v5.025c0 1.087.885 1.973 1.973 1.973zm17.818 11.744c0-.261.213-.473.474-.473h8.511c.261 0 .473.212.473.473v3.354a.473.473 0 0 1-.473.473H26.94a.474.474 0 0 1-.474-.473v-3.354zm0-8.536c0-.261.213-.473.474-.473h8.511c.261 0 .473.212.473.473v3.354a.473.473 0 0 1-.473.473H26.94a.474.474 0 0 1-.474-.473v-3.354zm0-8.535c0-.261.213-.473.474-.473h8.511c.261 0 .473.212.473.473v3.354a.473.473 0 0 1-.473.473H26.94a.474.474 0 0 1-.474-.473v-3.354zM8.175 11.254c0-.261.212-.473.473-.473h8.511c.261 0 .474.212.474.473v5.025a.474.474 0 0 1-.474.473H8.648a.473.473 0 0 1-.473-.473v-5.025zM46.383 15.353h4.247a.75.75 0 0 0 .75-.75v-4.572a.75.75 0 0 0-.75-.75h-4.247a.75.75 0 0 0-.75.75v4.572c0 .414.336.75.75.75zm.75-4.572h2.747v3.072h-2.747v-3.072zM54.057 15.353h4.247a.75.75 0 0 0 .75-.75v-4.572a.75.75 0 0 0-.75-.75h-4.247a.75.75 0 0 0-.75.75v4.572c0 .414.336.75.75.75zm.75-4.572h2.747v3.072h-2.747v-3.072zM46.383 23.356h4.247a.75.75 0 0 0 .75-.75v-4.572a.75.75 0 0 0-.75-.75h-4.247a.75.75 0 0 0-.75.75v4.572c0 .414.336.75.75.75zm.75-4.572h2.747v3.072h-2.747v-3.072zM54.057 23.356h4.247a.75.75 0 0 0 .75-.75v-4.572a.75.75 0 0 0-.75-.75h-4.247a.75.75 0 0 0-.75.75v4.572c0 .414.336.75.75.75zm.75-4.572h2.747v3.072h-2.747v-3.072zM58.325 52.759a.985.985 0 0 0-.408-.126H5.942c-2.611 0-4.706 2.146-4.706 4.704 0 2.392 1.988 4.705 4.706 4.705h51.975a.98.98 0 0 0 .408-.126l6.095-3.949a.751.751 0 0 0 0-1.259l-6.095-3.949zM8.046 60.537h-2.1c-1.828 0-3.208-1.538-3.208-3.2 0-1.765 1.463-3.201 3.208-3.201h2.1v6.401zm49.121.004H9.546v-6.409h47.621v6.409zm1.5-.635v-5.139l3.966 2.569-3.966 2.57z"/></svg>