<svg xmlns="http://www.w3.org/2000/svg" viewBox="0 0 48 48"><g data-name="Information by email"><path fill="#fc6" d="M47,17c0,28.22.15,26.52-.36,27.64A4,4,0,0,1,45,46.44c-1.33.8,1.35.56-40,.56a4,4,0,0,1-3.44-2C.78,43.74,1,45.1,1,17l6-6H41Z"/><path fill="#ffde76" d="M47,17c0,28.22.15,26.52-.36,27.64C45.52,45.15,48.55,45,7,45a4,4,0,0,1-4-4V15l4-4H41Z"/><path fill="#dad7e5" d="M33.36,32.05l2,2H32.49l-5.86-5.77a5,5,0,0,0-6.16.72c-3.79,3.77-4.58,4.57-5.06,5.05H12.59l2-2L7,24.41V4A3,3,0,0,1,9,1.18C9.67.92,7.38,1,38,1a3,3,0,0,1,3,3V24.41Z"/><path fill="#ffba55" d="M33.36,32.05c8,7.91,3.09,3,13.08,13A3.87,3.87,0,0,1,45,46.44c-9.48-9.46-4.24-4.26-18.4-18.21a5,5,0,0,0-6.16.72L3,46.44A3.89,3.89,0,0,1,1.56,45l13-13L1,18.42V17l.71-.71L16,30.59c2.8-2.81,4.42-5.1,8-5.1A6.72,6.72,0,0,1,28,26.73l4,3.92L46.29,16.29,47,17v1.42Z"/><path fill="#edebf2" d="M41,4V18.75l-9.07,9.08C29,25,29.16,25.09,28.82,24.88a9,9,0,0,0-11.19,1.24L16,27.76l-7-7V1.18C9.67.92,7.38,1,38,1A3,3,0,0,1,41,4Z"/><path fill="#6fabe6" d="M41,33a8,8,0,1,1-12.56-6.56A8,8,0,0,1,41,33Z"/><path fill="#82bcf4" d="M41,33a7.87,7.87,0,0,1-1.44,4.56A7.87,7.87,0,0,1,35,39a8,8,0,0,1-6.56-12.56A8,8,0,0,1,41,33Z"/><path fill="#edebf2" d="M33 30a1 1 0 0 0 1-1 1 1 0 1 0-1 1zM34 36V32a1 1 0 0 0-1-1H32a1 1 0 0 0 0 2v3a1 1 0 0 0 0 2h2A1 1 0 0 0 34 36z"/><path fill="#c6c3d8" d="M35 9H13a1 1 0 0 1 0-2H35A1 1 0 0 1 35 9zM35 15H13a1 1 0 0 1 0-2H35A1 1 0 0 1 35 15zM35 21H13a1 1 0 0 1 0-2H35A1 1 0 0 1 35 21z"/><path d="M48,17c0-.59.07-.34-6-6.41V4a4,4,0,0,0-4-4H10A4,4,0,0,0,6,4v6.59c-6.24,6.23-5.81,5.76-5.92,6S0,15.21,0,43a5,5,0,0,0,5,5H43a5,5,0,0,0,5-5ZM45.7,44.29,40,38.61a9,9,0,0,0-1-12.25l7-6.95C46,45.16,46.12,43.4,45.7,44.29ZM33,26a7,7,0,1,1-7,7A7,7,0,0,1,33,26Zm12.59-9L42,20.59V13.41ZM8,4a2,2,0,0,1,2-2H38a2,2,0,0,1,2,2V22.59l-2.58,2.58a8.94,8.94,0,0,0-10.32,1,7.09,7.09,0,0,0-3.1-.73c-3.57,0-5.13,2.22-8,5.1l-8-8ZM2.3,44.29c-.43-.9-.3.79-.3-24.88L14.59,32ZM6,20.59,2.41,17,6,13.41ZM5,46a3,3,0,0,1-1.29-.3L20.47,29a4.94,4.94,0,0,1,5.2-1.16A9,9,0,0,0,38.61,40l5.68,5.67C43.39,46.13,46.61,46,5,46Z"/><path d="M33 30a1 1 0 0 0 1-1 1 1 0 1 0-1 1zM32 38h2a1 1 0 0 0 0-2V32a1 1 0 0 0-1-1H32a1 1 0 0 0 0 2v3A1 1 0 0 0 32 38zM13 9H35a1 1 0 0 0 0-2H13A1 1 0 0 0 13 9zM13 15H35a1 1 0 0 0 0-2H13A1 1 0 0 0 13 15zM13 21H35a1 1 0 0 0 0-2H13A1 1 0 0 0 13 21z"/></g></svg>