<svg xmlns="http://www.w3.org/2000/svg" data-name="Layer 1" viewBox="0 0 512 512"><path fill="#845e41" d="M491.452,174.666c2.59,9.08,6.29,27.61-1.77,40.56h-.03c-.33-6.01-3.55-9.73-5.64-13.95a7.76,7.76,0,0,0-6.47-4.3l-195.36-11.71,1.99-6.46a7.879,7.879,0,0,0,.06-5.31l199.99-4.15A7.362,7.362,0,0,1,491.452,174.666Z"/><path fill="#ea983f" d="M489.652,215.226c-.33-6.01-3.55-9.73-5.64-13.95a7.76,7.76,0,0,0-6.47-4.3l-228.11-16.73-201.86-25.84a7.981,7.981,0,0,0-8.8,6.36,63.215,63.215,0,0,0-1.19,12.49,50.547,50.547,0,0,0,3.09,17.41c6.96,18.54-3.09,47.73-3.09,47.73s-7.35,25.24-3.87,32.21-.93,18.73-.93,18.73-5.45,23.58,3.25,25.9c4.12,1.1,41.78,4.06,80.3,6.87,42.836,3.15,159.9,9.254,159.929,9.255L463.6,355.946c6.9-4.25,10.09-25.48,8.5-38.22s6.9-22.83,9.03-36.63-13.86-19.16,2.08-46.24C488.412,226.026,489.912,219.926,489.652,215.226Z"/><path fill="#845e41" d="M116.332,322.106v.01l-92.81,7.11a6.672,6.672,0,0,1-6.88-4.61c-1.5-4.7-2.85-12.82-.65-24.59,2.51-13.45,1.87-32.54.48-47.71-1.67-18.27-3.42-30.02.44-42.6,3.39-11.01,3.21-22.14,1.83-28.4a6.665,6.665,0,0,1,6.54-8.06h12.3a50.547,50.547,0,0,0,3.09,17.41c6.96,18.54-3.09,47.73-3.09,47.73s-7.35,25.24-3.87,32.21-.93,18.73-.93,18.73-5.45,23.58,3.25,25.9C40.152,316.336,77.812,319.3,116.332,322.106Z"/><path fill="#f9436e" d="M255.242,180.246l2.02-7.02.47-1.65a8.027,8.027,0,0,1,9.31-5.64l11.2,2.28a7.976,7.976,0,0,1,5.99,5.28,7.879,7.879,0,0,1-.06,5.31l-1.99,6.46-16.66,53.94v.01c-7,1.92-12.19,6.94-15.73,11.74L246.422,211Z"/><path fill="#ff487c" d="M249.792,250.956c3.54-4.8,8.73-9.82,15.73-11.74v-.01a23.831,23.831,0,0,1,9.99-.5c9.15,1.41,10.01,13.54,2.67,19.14-6.07,4.63-17.36,5.05-25.33,4.67-5.21-.25-9-.85-9-.85A48.074,48.074,0,0,1,249.792,250.956Z"/><path fill="#e94253" d="M239.842 329.206l-2.56-21.9-4.47-38.32c3.84-1.8 7.48-4.73 11.04-7.32 0 0 3.79.6 9 .85l11.79 67.32a6.406 6.406 0 0 1-7.41 7.59l-12.1-2.17a6.4 6.4 0 0 1-5.22-5.44zM243.622 177.686l2.8 33.31 3.37 39.96a48.074 48.074 0 0 0-5.94 10.71c-8.07-.4-10.21-8.84-16.7-11.8l-11.23-75.47a7.994 7.994 0 0 1 6.09-9.01l11.12-2.62a8.025 8.025 0 0 1 9.83 7.14l.33 3.96z"/><path fill="#ff487c" d="M243.852,261.666c-3.56,2.59-7.2,5.52-11.04,7.32a16.378,16.378,0,0,1-6.26,1.69c-.2.02-.4.02-.6.02a13.158,13.158,0,0,1-6.15-1.57c-15-7.8-4.51-19.22-.59-19.97a12.767,12.767,0,0,1,7.94.71C233.642,252.826,235.782,261.266,243.852,261.666Z"/><path fill="#f9436e" d="M225.842,272.426l.62-1.52.09-.21v-.02a16.378,16.378,0,0,0,6.26-1.69l4.47,38.32-7.61,21.61-1.24,3.5a1.662,1.662,0,0,1-1.78,1.09l-22.28-3a1.665,1.665,0,0,1-1.3-2.3Z"/><path fill="#ce843a" d="M66.032,318.236c-8.7-2.32-3.25-25.9-3.25-25.9s4.41-11.76.93-18.73,3.87-32.21,3.87-32.21,10.05-29.19,3.09-47.73a50.547,50.547,0,0,1-3.09-17.41,63.215,63.215,0,0,1,1.19-12.49A7.945,7.945,0,0,1,74,157.789l-26.43-3.383a7.981,7.981,0,0,0-8.8,6.36,63.215,63.215,0,0,0-1.19,12.49,50.547,50.547,0,0,0,3.09,17.41c6.96,18.54-3.09,47.73-3.09,47.73s-7.35,25.24-3.87,32.21-.93,18.73-.93,18.73-5.45,23.58,3.25,25.9c2.193.586,13.886,1.7,30.151,3.034C66.136,318.259,66.072,318.247,66.032,318.236Z"/><path fill="#314a68" d="M485.521,165.2l-196.936,4.087a13.008,13.008,0,0,0-7.941-5.12l-11.193-2.278a13.094,13.094,0,0,0-14.427,7.351l-5.792.261a12.989,12.989,0,0,0-15.838-10.748l-11.12,2.612A13.069,13.069,0,0,0,213,169.706L49.568,150.292a13.038,13.038,0,0,0-14.3,10.365,69.4,69.4,0,0,0-1.124,8.453H26.694a11.666,11.666,0,0,0-9.138,4.381,11.537,11.537,0,0,0-2.288,9.757c1.295,5.861,1.265,16.129-1.723,25.856-3.73,12.139-2.665,23.282-1.19,38.7.179,1.866.364,3.8.548,5.817,1.01,11.056,2.3,31.776-.42,46.335-2.384,12.775-.878,21.753.8,27.034A11.619,11.619,0,0,0,24.4,335.1q.456,0,.916-.036l92.406-7.077c34.859,2.555,70.371,4.976,83.054,5.834a6.582,6.582,0,0,0,4.342,2.491l22.276,3a6.51,6.51,0,0,0,.878.06,6.7,6.7,0,0,0,6.286-4.438l.023-.066,2.913.085a11.361,11.361,0,0,0,8.168,6.079l12.1,2.166a11.365,11.365,0,0,0,12.557-6.9l194.04,25.462a4.92,4.92,0,0,0,.651.043,5,5,0,0,0,2.618-.74c10.038-6.172,12.361-30.958,10.843-43.1-.78-6.23,1.436-11.945,4-18.563,1.991-5.136,4.05-10.448,5.01-16.682.938-6.091-.89-10.882-2.5-15.109-2.695-7.065-5.241-13.738,3.952-29.355,5.209-8.848,7.136-15.427,7.18-20.838,7.987-14.285,4.453-33.122,1.559-43.265A12.342,12.342,0,0,0,485.521,165.2Zm-221.572,8.61a3.036,3.036,0,0,1,3.507-2.123l11.193,2.279a3.014,3.014,0,0,1,2.235,3.984c-.029.077-.055.156-.08.235L262.89,236.205a31.736,31.736,0,0,0-7.626,4.34l-2.376-28.2ZM276.158,244.5a3.571,3.571,0,0,1,3.176,2.867,7.306,7.306,0,0,1-2.775,7.355c-4.316,3.291-13.617,4.026-21.715,3.691-.133-.016-.266-.011-.4-.016-.521-.023-1.038-.051-1.546-.084a40.707,40.707,0,0,1,3.917-5.539C262.421,246.164,268.929,243.384,276.158,244.5ZM24.549,325.1a1.666,1.666,0,0,1-1.733-1.14c-1.335-4.187-2.5-11.432-.5-22.161,2.94-15.746,1.605-37.51.549-49.081q-.279-3.043-.552-5.86c-1.415-14.8-2.351-24.579.794-34.813,3.764-12.254,3.391-24.332,1.928-30.951a1.546,1.546,0,0,1,.321-1.337,1.7,1.7,0,0,1,1.341-.643h7.535a53.835,53.835,0,0,0,3.17,14.165c6.235,16.617-3.045,44.078-3.139,44.35-.026.076-.051.153-.073.23-1.852,6.362-7.578,27.744-3.539,35.835,1.809,3.625.257,10.968-1.142,14.738a5.029,5.029,0,0,0-.192.634c-1.531,6.637-5.565,28.553,6.84,31.858,1.654.441,7.927,1.133,17.142,1.974Zm176.669-1.265C138.052,319.563,45.161,312.87,38.805,311.3c-2-1.623-1.528-12.015.188-19.7.886-2.48,4.687-14.194.6-22.376-1.381-2.766.563-16.05,4.161-28.467.825-2.436,10.345-31.437,3-51-3.8-10.142-3.012-20.377-1.677-27.177a3.007,3.007,0,0,1,3.305-2.363l164.554,19.547,9.675,64.982a22.458,22.458,0,0,0-2.927.35c-4.5.852-10.187,6.4-11.157,12.986-.507,3.444-.056,9.664,7.741,14.8-6.468,3.3-12.648,7.4-17.514,14.068-10.493,14.368-17.2,15.724-18.832,15.061a5,5,0,0,0-5.846,8.1,11.037,11.037,0,0,0,6.688,2.006,14.914,14.914,0,0,0,2.044-.144c7.426-1.035,15.508-7.47,24.022-19.129a34.244,34.244,0,0,1,10.841-9.346Zm24.812,5.21-15.3-2.06,19.535-47.862,3.325,28.472Zm-2.517-63.5c-2.393-1.244-5.225-3.232-5.122-5.63.095-2.2,2.333-4.524,3.35-5.022,4.495-.8,6.223.882,9.642,4.694a40.337,40.337,0,0,0,3.888,3.939C230.851,266.378,227.345,267.539,223.513,265.544Zm9.638-17.952-10.883-73.1a3.028,3.028,0,0,1,2.293-3.39l11.121-2.613a3.019,3.019,0,0,1,3.7,2.692l6.673,79.184a50.211,50.211,0,0,0-3.6,6.088,23.578,23.578,0,0,1-3.626-3.547A32.13,32.13,0,0,0,233.151,247.592Zm27.628,85.362a1.376,1.376,0,0,1-1.258.4l-12.1-2.166a1.375,1.375,0,0,1-1.133-1.1L239.574,272.6c2.441-1.46,4.692-3.122,6.72-4.625l.295-.218c.919.115,2.084.244,3.422.363l11.11,63.436c.008.048.017.095.027.142A1.367,1.367,0,0,1,260.779,332.954ZM480.31,233.178c-11.632,19.76-7.776,29.869-4.677,37.992,1.4,3.657,2.5,6.546,1.962,10.022-.794,5.158-2.653,9.953-4.45,14.59-2.8,7.219-5.692,14.685-4.6,23.419,1.48,11.831-1.631,27.8-5.126,32.348L270.337,326.213l-8.358-47.723c5.462,6.735,10.394,14.989,9.8,21.959-.627,7.294,1.16,13.286,5.311,17.81,7.031,7.661,18.236,7.749,18.709,7.749a5,5,0,0,0,.025-10c-.073,0-7.384-.127-11.4-4.548-2.184-2.4-3.061-5.727-2.681-10.155.733-8.524-3.23-18.222-11.779-28.825-1.259-1.561-2.52-3.016-3.736-4.355,6.047-.637,12.113-2.183,16.4-5.451a17.329,17.329,0,0,0,6.4-17.773,13.514,13.514,0,0,0-11.34-10.285,30.11,30.11,0,0,0-3.736-.336l13.259-42.937,191.44,11.483a2.765,2.765,0,0,1,2.3,1.531c.594,1.195,1.242,2.309,1.867,3.387C486.136,213.465,489.005,218.406,480.31,233.178Zm10.4-31.766c-.29-.514-.566-1.017-.812-1.512a12.785,12.785,0,0,0-10.65-7.056l-189-11.338.081-.261a13.016,13.016,0,0,0,.511-2L485.73,175.2a2.33,2.33,0,0,1,2.321,1.689C489.458,181.82,491.779,191.862,490.709,201.412Z"/><path fill="#314a68" d="M454.045 241.062a5 5 0 0 0 .461-9.979L293.822 216.021a5 5 0 1 0-.933 9.957L453.572 241.04C453.731 241.055 453.889 241.062 454.045 241.062zM74.763 202.746l129.028 14.435a5.067 5.067 0 0 0 .562.031 5 5 0 0 0 .549-9.969L75.874 192.809a5 5 0 1 0-1.111 9.937zM454.55 259.318L307.993 244.256a5 5 0 0 0-1.023 9.947l146.558 15.063c.174.017.346.026.517.026a5 5 0 0 0 .5-9.974zM74.721 230.973l119.947 14.434a4.932 4.932 0 0 0 .6.037 5 5 0 0 0 .591-9.965L75.916 221.045a5 5 0 1 0-1.195 9.928zM454.045 299.539a5 5 0 0 0 .476-9.977L298.882 274.5a5 5 0 0 0-.963 9.953l155.639 15.063C453.721 299.531 453.884 299.539 454.045 299.539zM186.652 261.679l-110.866-10.4a5 5 0 0 0-.935 9.957l110.866 10.4c.159.014.317.021.473.021a5 5 0 0 0 .462-9.978zM454.5 319.808L314 306.762a5 5 0 1 0-.925 9.957l140.5 13.046q.236.021.468.021a5 5 0 0 0 .456-9.978zM163.4 288.9l-87.659-7.376a5 5 0 1 0-.839 9.964l87.66 7.377c.143.012.284.018.424.018a5 5 0 0 0 .414-9.983z"/></svg>